# xmcd CD database file
#
# Track frame offsets:
#	150
#	10947
#	20065
#	39922
#	54625
#	83765
#	95937
#	108837
#	114905
#	133952
#	146715
#	155287
#	173637
#	174610
#	197222
#	209262
#	220815
#	238175
#	250422
#	260200
#
# Disc length: 3626 seconds
#
# Revision: 0
# Processed by: cddbd v1.5.2PL0 Copyright (c) Steve Scherf et al.
# Submitted via: CDex 1.51
#
DISCID=260e2814
DTITLE=Various Artist - Broadcasting the Blues
DYEAR=2009
DGENRE=Blues
TTITLE0=Lowell Fulson - Sinner's Prayer
TTITLE1=Otis Clay and Johnny Rawls - I Want To Be At The Meeting
TTITLE2=Tomcat Courtney with Chris James - Tell Me Where You Stayed Last Night
TTITLE3=Chief Schabuttie Gilliame w/ Johnny Rapp and Mario Moreno - No More Doggin'
TTITLE4=Louisiana Red w/ Chris James - The World Is Awful
TTITLE5=Billy Boy Arnold - Shake Your Boogie
TTITLE6=Dave Riley - My Baby's Gone
TTITLE7=Jerry Lawson - Who Stole The Chicken
TTITLE8=Tomcat Courtney with Chris James - The World Is Mad
TTITLE9=Billy Flynn with Chris James - Billy's Bounce
TTITLE10=Louisiana Red - Home In The Rock
TTITLE11=Lazy Lester - Out On The Road
TTITLE12=Willie Dixon - Bob, Keep On Playin' The Blues
TTITLE13=Johnny Dyer w/ Chris James and Patrick Rynn - Johnny's Crazy Blues
TTITLE14=Chief Schabuttie Gilliame w/ Johnny Rapp and Mario Moreno - When The Saints Go Marching In
TTITLE15=Cedell Davis - I Need You Bad
TTITLE16=Henry Gray w/ Billy Flynn and Chris James - Cold Chills
TTITLE17=Louisiana Red - Look What A Wonder
TTITLE18=Lazy Lester - O.J. Shuffle
TTITLE19=Margo Reed - Eye On The Sparrow
EXTD=YEAR: 2009
EXTT0=
EXTT1=
EXTT2=
EXTT3=
EXTT4=
EXTT5=
EXTT6=
EXTT7=
EXTT8=
EXTT9=
EXTT10=
EXTT11=
EXTT12=
EXTT13=
EXTT14=
EXTT15=
EXTT16=
EXTT17=
EXTT18=
EXTT19=
PLAYORDER=
